<svg xmlns="http://www.w3.org/2000/svg" version="1.1" xmlns:xlink="http://www.w3.org/1999/xlink" width="512" height="512" x="0" y="0" viewBox="0 0 468 468" style="enable-background:new 0 0 512 512" xml:space="preserve" class=""><g><path fill="#f5f9ff" d="M456.475 247.424a30.618 30.618 0 0 1-.034-27.416c15.98-31.991 15.654-72.457-4.287-107.242-21.874-38.156-61.426-59.142-100.407-57.43-9.922.436-19.497-4.081-25.505-11.99C306.398 17.224 272.417 0 233.823 0c-38.682 0-72.73 17.303-92.553 43.526-6.003 7.941-15.591 12.48-25.538 12.077C76.863 54.03 37.479 75.007 15.67 113.05c-20 34.888-20.27 75.491-4.145 107.527a30.618 30.618 0 0 1 .034 27.416c-15.98 31.991-15.654 72.457 4.287 107.242 21.874 38.156 61.426 59.142 100.407 57.43 9.922-.436 19.497 4.081 25.505 11.99C161.601 450.776 195.583 468 234.177 468c38.682 0 72.73-17.303 92.553-43.526 6.003-7.941 15.591-12.48 25.538-12.077 38.87 1.573 78.253-19.404 100.062-57.447 20-34.888 20.27-75.491 4.145-107.526z" opacity="1" data-original="#f5f9ff" class=""></path><circle cx="234.781" cy="40.121" r="7" fill="#95bffe60" opacity="1" data-original="#95bffe60"></circle><circle cx="31.91" cy="190.093" r="7" fill="#ad9cdb50" opacity="1" data-original="#ad9cdb50"></circle><circle cx="31.91" cy="282.308" r="7" fill="#ff8a8060" opacity="1" data-original="#ff8a8060"></circle><path fill="#95bffe60" d="m221.971 138.53 5.81 1.231-6.719 1.906a9.999 9.999 0 0 0-7.035 7.461l-1.246 5.633-1.246-5.633a9.999 9.999 0 0 0-7.035-7.461l-6.719-1.906 5.81-1.231a10 10 0 0 0 7.643-7.417l1.547-6.352 1.547 6.352a10.002 10.002 0 0 0 7.643 7.417z" opacity="1" data-original="#95bffe60"></path><path fill="#ff8a8060" d="m426.186 258.769 5.81 1.231-6.719 1.906a9.999 9.999 0 0 0-7.035 7.461L416.996 275l-1.246-5.633a9.999 9.999 0 0 0-7.035-7.461L401.996 260l5.81-1.231a10 10 0 0 0 7.643-7.417l1.547-6.352 1.547 6.352a10.002 10.002 0 0 0 7.643 7.417z" opacity="1" data-original="#ff8a8060"></path><path fill="#e0f9dc" d="M135 374.822v-19.517l-13.861-3.388a47.709 47.709 0 0 0-4.197-10.16l7.43-12.238-13.801-13.801-12.204 7.409A47.628 47.628 0 0 0 88.22 318.9L84.822 305H65.305l-3.388 13.861a47.709 47.709 0 0 0-10.16 4.197l-12.238-7.43-13.801 13.801 7.409 12.204A47.628 47.628 0 0 0 28.9 351.78L15 355.178v19.517l13.861 3.388a47.688 47.688 0 0 0 4.197 10.16l-7.43 12.238 13.801 13.801 12.204-7.409A47.628 47.628 0 0 0 61.78 411.1l3.398 13.9h19.517l3.388-13.861a47.688 47.688 0 0 0 10.16-4.197l12.238 7.43 13.801-13.801-7.409-12.204a47.628 47.628 0 0 0 4.227-10.147z" opacity="1" data-original="#e0f9dc" class=""></path><path fill="#bdbdcc" d="M84.694 430H65.178a5 5 0 0 1-4.857-3.813l-2.731-11.174a52.643 52.643 0 0 1-5.771-2.404l-9.794 5.946a5 5 0 0 1-6.13-.738l-13.801-13.801a4.998 4.998 0 0 1-.739-6.13l5.972-9.836a52.791 52.791 0 0 1-2.388-5.779l-11.125-2.719a5 5 0 0 1-3.813-4.857v-19.517a5 5 0 0 1 3.813-4.857l11.174-2.732a53.02 53.02 0 0 1 2.404-5.772l-5.946-9.793a5 5 0 0 1 .739-6.13l13.801-13.801a4.998 4.998 0 0 1 6.13-.738l9.836 5.972a52.776 52.776 0 0 1 5.778-2.388l2.72-11.125a5.002 5.002 0 0 1 4.857-3.813h19.517a5 5 0 0 1 4.857 3.813l2.731 11.174a52.643 52.643 0 0 1 5.771 2.404l9.794-5.946a5 5 0 0 1 6.13.738l13.801 13.801a4.998 4.998 0 0 1 .739 6.13l-5.972 9.836a52.791 52.791 0 0 1 2.388 5.779l11.125 2.719a5 5 0 0 1 3.813 4.857v19.517a5 5 0 0 1-3.813 4.857l-11.174 2.732a53.02 53.02 0 0 1-2.404 5.772l5.946 9.793a5 5 0 0 1-.739 6.13l-13.801 13.801a4.998 4.998 0 0 1-6.13.738l-9.836-5.972a52.776 52.776 0 0 1-5.778 2.388l-2.72 11.125A5.001 5.001 0 0 1 84.694 430zm-15.591-10H80.77l2.456-10.048a5.003 5.003 0 0 1 3.496-3.624 42.739 42.739 0 0 0 9.094-3.757 4.997 4.997 0 0 1 5.022.097l8.883 5.393 8.25-8.25-5.373-8.849a4.999 4.999 0 0 1-.089-5.036 42.77 42.77 0 0 0 3.784-9.083 4.997 4.997 0 0 1 3.619-3.48L130 370.897V359.23l-10.049-2.456a5 5 0 0 1-3.624-3.497 42.71 42.71 0 0 0-3.756-9.093 5 5 0 0 1 .097-5.022l5.394-8.883-8.25-8.25-8.85 5.372a5 5 0 0 1-5.035.09 42.74 42.74 0 0 0-9.083-3.784 4.997 4.997 0 0 1-3.48-3.619L80.897 310H69.23l-2.456 10.048a5.003 5.003 0 0 1-3.496 3.624 42.739 42.739 0 0 0-9.094 3.757 5 5 0 0 1-5.022-.097l-8.883-5.393-8.25 8.25 5.373 8.849a4.999 4.999 0 0 1 .089 5.036 42.77 42.77 0 0 0-3.784 9.083 4.997 4.997 0 0 1-3.619 3.48L20 359.103v11.667l10.049 2.456a5 5 0 0 1 3.624 3.497 42.71 42.71 0 0 0 3.756 9.093 5 5 0 0 1-.097 5.022l-5.394 8.883 8.25 8.25 8.85-5.372a4.995 4.995 0 0 1 5.035-.09 42.74 42.74 0 0 0 9.083 3.784 4.997 4.997 0 0 1 3.48 3.619z" opacity="1" data-original="#bdbdcc" class=""></path><circle cx="75" cy="365" r="23.377" fill="#ffffff" opacity="1" data-original="#ffffff" class=""></circle><path fill="#bdbdcc" d="M75 393.376c-15.647 0-28.377-12.729-28.377-28.376S59.353 336.624 75 336.624s28.377 12.729 28.377 28.376S90.647 393.376 75 393.376zm0-46.752c-10.133 0-18.377 8.244-18.377 18.376S64.867 383.376 75 383.376 93.377 375.133 93.377 365 85.133 346.624 75 346.624z" opacity="1" data-original="#bdbdcc" class=""></path><path fill="#95bffe" d="M365.889 197.771v225.724H82.111V197.771c0-11.046 8.954-20 20-20h243.778c11.046 0 20 8.954 20 20z" opacity="1" data-original="#95bffe" class=""></path><path fill="#bdd8ff" d="M116.111 177.771h-14c-11.046 0-20 8.954-20 20v225.724h14V197.771c0-11.046 8.954-20 20-20z" opacity="1" data-original="#bdd8ff" class=""></path><path fill="#efefef" d="M112.968 208.16h222.065v184.945H112.968z" opacity="1" data-original="#efefef" class=""></path><path fill="#ffffff" d="M112.968 208.16h13v184.945h-13z" opacity="1" data-original="#ffffff" class=""></path><path fill="#cce3ff" d="M383 423.495H65V443c0 11.046 8.954 20 20 20h278c11.046 0 20-8.954 20-20z" opacity="1" data-original="#cce3ff"></path><path fill="#ebf5ff" d="M81 443v-19.505H65V443c0 11.046 8.954 20 20 20h16c-11.046 0-20-8.954-20-20z" opacity="1" data-original="#ebf5ff"></path><path fill="#fffae6" d="M445 218H278.273c-9.941 0-18-8.059-18-18V72.914H463V200c0 9.941-8.059 18-18 18z" opacity="1" data-original="#fffae6" class=""></path><path fill="#ffffff" d="M275.273 200V72.914h-15V200c0 9.941 8.059 18 18 18h15c-9.941 0-18-8.059-18-18z" opacity="1" data-original="#ffffff" class=""></path><g fill="#5b5b7f"><path d="m302.4 149.931 37.512 19.392v-11.275l-23.329-11.737 23.329-11.737v-11.275L302.4 142.692zM347.423 170.214h10.767l21.381-55.564h-10.842zM383.361 123.309v11.271l23.497 11.731-23.497 11.731v11.272l37.24-19.172.271-.14v-7.382z" fill="#5b5b7f" opacity="1" data-original="#5b5b7f" class=""></path></g><path fill="#ad9cdb" d="M463 72.914H260.273V54c0-9.941 8.059-18 18-18H443c11.046 0 20 8.954 20 20z" opacity="1" data-original="#ad9cdb"></path><path fill="#c7c1e8" d="M293.273 36h-15c-9.941 0-18 8.059-18 18v18.914h15V54c0-9.941 8.059-18 18-18z" opacity="1" data-original="#c7c1e8"></path><g fill="#5b5b7f"><ellipse cx="440.388" cy="54.457" rx="5.458" ry="5.478" fill="#5b5b7f" opacity="1" data-original="#5b5b7f" class=""></ellipse><ellipse cx="416.996" cy="54.457" rx="5.458" ry="5.478" fill="#5b5b7f" opacity="1" data-original="#5b5b7f" class=""></ellipse><ellipse cx="393.605" cy="54.457" rx="5.458" ry="5.478" fill="#5b5b7f" opacity="1" data-original="#5b5b7f" class=""></ellipse></g><path fill="#b1f0a8" d="M289 311.274V290.13l-15.016-3.671a51.623 51.623 0 0 0-4.547-11.007l8.049-13.258-14.951-14.951-13.221 8.027a51.592 51.592 0 0 0-10.993-4.579l-3.681-15.059h-21.144l-3.671 15.016a51.623 51.623 0 0 0-11.007 4.547l-13.258-8.049-14.951 14.951 8.027 13.221a51.592 51.592 0 0 0-4.579 10.993L159 289.992v21.144l15.016 3.671a51.623 51.623 0 0 0 4.547 11.007l-8.049 13.258 14.951 14.951 13.221-8.027a51.592 51.592 0 0 0 10.993 4.579l3.681 15.059h21.144l3.671-15.016a51.623 51.623 0 0 0 11.007-4.547l13.258 8.049 14.951-14.951-8.027-13.221a51.592 51.592 0 0 0 4.579-10.993z" opacity="1" data-original="#b1f0a8" class=""></path><path fill="#dff9d9" d="M220.363 347.961a11.001 11.001 0 0 0-7.658-7.963c-3-.859-5.91-2.071-8.649-3.604a10.997 10.997 0 0 0-11.079.197l-5.84 3.545-2.739-2.739 3.567-5.876a10.997 10.997 0 0 0 .215-11.048 40.824 40.824 0 0 1-3.58-8.665 10.998 10.998 0 0 0-7.972-7.688L170 302.5v-3.875l6.671-1.63a11.001 11.001 0 0 0 7.963-7.658 40.76 40.76 0 0 1 3.604-8.652 10.998 10.998 0 0 0-.198-11.077l-3.545-5.839 2.739-2.74 5.877 3.568a11.003 11.003 0 0 0 11.051.213 40.696 40.696 0 0 1 8.659-3.578 11 11 0 0 0 7.69-7.972l3.671-15.016-10.685-2.612-3.671 15.016a51.602 51.602 0 0 0-11.007 4.547l-13.257-8.049-14.951 14.951 8.027 13.221a51.592 51.592 0 0 0-4.579 10.993L159 289.992v21.144l15.016 3.671a51.623 51.623 0 0 0 4.547 11.007l-8.049 13.257 14.951 14.951 13.22-8.026a51.592 51.592 0 0 0 10.993 4.579l3.681 15.059 10.686-2.612z" opacity="1" data-original="#dff9d9" class=""></path><path fill="#5b5b7f" d="M234.503 370.633h-21.144a5 5 0 0 1-4.857-3.813l-3.013-12.325a56.65 56.65 0 0 1-6.625-2.76l-10.805 6.56a5 5 0 0 1-6.13-.738l-14.951-14.951a4.998 4.998 0 0 1-.739-6.13l6.588-10.85a56.518 56.518 0 0 1-2.741-6.633l-12.273-3a5 5 0 0 1-3.813-4.857v-21.144a5 5 0 0 1 3.813-4.857l12.325-3.013c.777-2.26 1.7-4.475 2.76-6.625l-6.561-10.805a5 5 0 0 1 .739-6.13l14.951-14.951a5 5 0 0 1 6.13-.738l10.85 6.587a56.87 56.87 0 0 1 6.633-2.742l3-12.273a5.002 5.002 0 0 1 4.857-3.813h21.144a5 5 0 0 1 4.857 3.813l3.013 12.325a56.65 56.65 0 0 1 6.625 2.76l10.805-6.56a4.998 4.998 0 0 1 6.13.738l14.951 14.951a4.998 4.998 0 0 1 .739 6.13l-6.588 10.85a56.518 56.518 0 0 1 2.741 6.633l12.273 3a5 5 0 0 1 3.813 4.857v21.144a5 5 0 0 1-3.813 4.857l-12.325 3.013a56.45 56.45 0 0 1-2.76 6.625l6.561 10.805a5 5 0 0 1-.739 6.13l-14.951 14.951a5 5 0 0 1-6.13.738l-10.851-6.587a56.676 56.676 0 0 1-6.632 2.741l-3 12.273a5 5 0 0 1-4.857 3.814zm-17.219-10h13.294l2.738-11.204a5.004 5.004 0 0 1 3.496-3.624 46.701 46.701 0 0 0 9.939-4.106 4.997 4.997 0 0 1 5.022.097l9.903 6.012 9.4-9.4-5.99-9.866a5 5 0 0 1-.09-5.035 46.708 46.708 0 0 0 4.137-9.928 4.999 4.999 0 0 1 3.619-3.481L284 307.349v-13.294l-11.203-2.739a4.998 4.998 0 0 1-3.623-3.495 46.78 46.78 0 0 0-4.107-9.942 4.997 4.997 0 0 1 .097-5.021l6.013-9.902-9.4-9.4-9.866 5.989a5.001 5.001 0 0 1-5.036.09 46.67 46.67 0 0 0-9.927-4.136 4.998 4.998 0 0 1-3.481-3.62l-2.749-11.247h-13.294l-2.738 11.204a5.004 5.004 0 0 1-3.496 3.624 46.701 46.701 0 0 0-9.939 4.106 4.997 4.997 0 0 1-5.022-.097l-9.903-6.012-9.4 9.4 5.99 9.865a5 5 0 0 1 .09 5.035 46.73 46.73 0 0 0-4.137 9.928 4.999 4.999 0 0 1-3.619 3.481L164 293.917v13.294l11.203 2.738a4.997 4.997 0 0 1 3.623 3.495 46.78 46.78 0 0 0 4.107 9.942 4.997 4.997 0 0 1-.097 5.021l-6.013 9.902 9.4 9.4 9.866-5.99a4.996 4.996 0 0 1 5.036-.09 46.67 46.67 0 0 0 9.927 4.136 4.998 4.998 0 0 1 3.481 3.62z" opacity="1" data-original="#5b5b7f" class=""></path><circle cx="224" cy="300.633" r="25.325" fill="#ffffff" opacity="1" data-original="#ffffff" class=""></circle><path fill="#5b5b7f" d="M224 330.958c-16.721 0-30.324-13.604-30.324-30.325S207.28 270.308 224 270.308s30.324 13.604 30.324 30.325-13.603 30.325-30.324 30.325zm0-50.65c-11.207 0-20.324 9.118-20.324 20.325s9.117 20.325 20.324 20.325 20.324-9.118 20.324-20.325-9.117-20.325-20.324-20.325z" opacity="1" data-original="#5b5b7f" class=""></path><path fill="#fff099" d="M179.394 108.583c0-39.031-31.673-70.671-70.744-70.671s-70.744 31.64-70.744 70.671c0 21.025 9.193 39.9 23.781 52.843 12.364 10.97 19.852 26.534 19.852 43.216v16.151h54.222v-16.151c0-16.681 7.488-32.246 19.852-43.216 14.588-12.942 23.781-31.818 23.781-52.843z" opacity="1" data-original="#fff099" class=""></path><path fill="#fffae6" d="M94.539 220.793v-20.151c0-16.681-7.488-32.246-19.852-43.216-14.588-12.943-23.781-31.819-23.781-52.843 0-29.393 17.966-54.588 43.523-65.242-32.255 6.576-56.523 35.077-56.523 69.242 0 21.025 9.193 39.901 23.781 52.843 12.364 10.97 19.852 26.534 19.852 43.216v16.151z" opacity="1" data-original="#fffae6" class=""></path><path fill="#5b5b7f" d="M60.648 113.583a5 5 0 0 1-5-5c0-29.042 23.776-52.669 53.001-52.669a5 5 0 1 1 0 10c-23.711 0-43.001 19.142-43.001 42.669a5 5 0 0 1-5 5z" opacity="1" data-original="#5b5b7f" class=""></path><path fill="#ad9cdb" d="M135.882 185.58H81.898c-8.844 0-16.013 7.169-16.013 16.013 0 8.844 7.169 16.013 16.013 16.013h53.984c8.844 0 16.013-7.169 16.013-16.013 0-8.844-7.169-16.013-16.013-16.013z" opacity="1" data-original="#ad9cdb"></path><path fill="#c7c1e8" d="M79.885 201.593c0-8.844 7.169-16.013 16.013-16.013h-14c-8.844 0-16.013 7.169-16.013 16.013 0 8.844 7.169 16.013 16.013 16.013h14c-8.843 0-16.013-7.169-16.013-16.013z" opacity="1" data-original="#c7c1e8"></path><path fill="#ad9cdb" d="M136.582 217.606H81.199V235c0 5.523 4.477 10 10 10h35.383c5.523 0 10-4.477 10-10z" opacity="1" data-original="#ad9cdb"></path><path fill="#c7c1e8" d="M95.199 235v-17.394h-14V235c0 5.523 4.477 10 10 10h14c-5.523 0-10-4.477-10-10z" opacity="1" data-original="#c7c1e8"></path><ellipse cx="108.89" cy="120.593" fill="#efefef" rx="18.953" ry="19.168" opacity="1" data-original="#efefef" class=""></ellipse><path fill="#f9f9f9" d="M102.938 120.593c0-8.273 5.192-15.301 12.453-17.986a18.68 18.68 0 0 0-6.5-1.182c-10.467 0-18.953 8.582-18.953 19.168s8.485 19.167 18.953 19.167c2.287 0 4.47-.431 6.5-1.182-7.261-2.684-12.453-9.712-12.453-17.985z" opacity="1" data-original="#f9f9f9"></path><g fill="#5b5b7f"><path d="M108.715 18.708a5 5 0 0 1-5-5V5a5 5 0 1 1 10 0v8.708a5 5 0 0 1-5 5zM34.938 51.53a4.987 4.987 0 0 1-3.564-1.493l-6.058-6.157a5 5 0 0 1 7.129-7.014l6.058 6.157c2.932 2.981.61 8.507-3.565 8.507zM13.566 103.587H5a5 5 0 1 1 0-10h8.566a5 5 0 1 1 0 10zM212.781 103.231h-8.566a5 5 0 1 1 0-10h8.566a5 5 0 1 1 0 10zM182.595 51.278c-4.174 0-6.497-5.526-3.564-8.507l6.058-6.157a5 5 0 0 1 7.129 7.014l-6.058 6.157a4.99 4.99 0 0 1-3.565 1.493z" fill="#5b5b7f" opacity="1" data-original="#5b5b7f" class=""></path></g><path fill="#ff8a80" d="M463 391.915v-27.649l-19.636-4.8a67.468 67.468 0 0 0-5.946-14.393l10.526-17.337-19.551-19.551-17.288 10.496a67.507 67.507 0 0 0-14.375-5.988L391.915 293h-27.649l-4.8 19.636a67.468 67.468 0 0 0-14.393 5.946l-17.337-10.526-19.551 19.551 10.496 17.288a67.507 67.507 0 0 0-5.988 14.375L293 364.085v27.649l19.636 4.8a67.468 67.468 0 0 0 5.946 14.393l-10.526 17.337 19.551 19.551 17.288-10.496a67.507 67.507 0 0 0 14.375 5.988L364.085 463h27.649l4.8-19.636a67.468 67.468 0 0 0 14.393-5.946l17.337 10.526 19.551-19.551-10.496-17.288a67.507 67.507 0 0 0 5.988-14.375z" opacity="1" data-original="#ff8a80" class=""></path><path fill="#ffa8a4" d="M370.927 440.458a12 12 0 0 0-8.354-8.687 55.612 55.612 0 0 1-11.82-4.925 12.004 12.004 0 0 0-12.085.216l-9.236 5.607-6.229-6.229 5.638-9.285a12.002 12.002 0 0 0 .232-12.054 55.595 55.595 0 0 1-4.889-11.833 12.002 12.002 0 0 0-8.697-8.39L305 382.314v-8.81l10.542-2.577a12 12 0 0 0 8.687-8.354 55.651 55.651 0 0 1 4.925-11.82 12 12 0 0 0-.215-12.085l-5.607-9.236 6.229-6.229 9.285 5.637a12.004 12.004 0 0 0 12.054.233 55.584 55.584 0 0 1 11.835-4.89 12.004 12.004 0 0 0 8.39-8.697l4.8-19.637L364.266 293l-4.8 19.636a67.468 67.468 0 0 0-14.393 5.946l-17.337-10.526-19.551 19.551 10.496 17.289a67.455 67.455 0 0 0-5.988 14.375L293 364.085v27.649l19.636 4.8a67.468 67.468 0 0 0 5.946 14.393l-10.526 17.337 19.551 19.551 17.289-10.496a67.507 67.507 0 0 0 14.375 5.988L364.085 463l11.656-2.85z" opacity="1" data-original="#ffa8a4"></path><circle cx="378" cy="378" r="44.524" fill="#ededed" opacity="1" data-original="#ededed"></circle><path fill="#ffffff" d="M346.476 378c0-22.381 16.516-40.899 38.024-44.046a44.8 44.8 0 0 0-6.5-.477c-24.59 0-44.524 19.934-44.524 44.524S353.41 422.524 378 422.524a44.94 44.94 0 0 0 6.5-.477c-21.508-3.148-38.024-21.666-38.024-44.047z" opacity="1" data-original="#ffffff" class=""></path><path fill="#5b5b7f" d="M378 427.524c-27.308 0-49.523-22.216-49.523-49.524s22.216-49.524 49.523-49.524 49.523 22.216 49.523 49.524-22.215 49.524-49.523 49.524zm0-89.048c-21.793 0-39.523 17.73-39.523 39.524s17.73 39.524 39.523 39.524 39.523-17.73 39.523-39.524-17.73-39.524-39.523-39.524z" opacity="1" data-original="#5b5b7f" class=""></path><path fill="#ff8a80" d="M378 394.19c-8.928 0-16.19-7.263-16.19-16.19s7.263-16.19 16.19-16.19 16.19 7.263 16.19 16.19-7.262 16.19-16.19 16.19z" opacity="1" data-original="#ff8a80" class=""></path><path fill="#ffa8a4" d="M371.81 378c0-7.182 4.704-13.279 11.19-15.391a16.12 16.12 0 0 0-5-.799c-8.928 0-16.19 7.263-16.19 16.19s7.263 16.19 16.19 16.19a16.12 16.12 0 0 0 5-.799c-6.486-2.112-11.19-8.209-11.19-15.391z" opacity="1" data-original="#ffa8a4"></path><path fill="#5b5b7f" d="M378 399.19c-11.685 0-21.19-9.506-21.19-21.19s9.506-21.19 21.19-21.19 21.19 9.506 21.19 21.19-9.505 21.19-21.19 21.19zm0-32.38c-6.171 0-11.19 5.02-11.19 11.19s5.02 11.19 11.19 11.19 11.19-5.02 11.19-11.19-5.019-11.19-11.19-11.19z" opacity="1" data-original="#5b5b7f" class=""></path><path fill="#5b5b7f" d="M445 223c12.683 0 23-10.318 23-23V56c0-13.785-11.215-25-25-25H278.272c-12.683 0-23 10.318-23 23v118.771h-103.44a55.414 55.414 0 0 1 7.099-7.604c16.182-14.357 25.462-34.981 25.462-56.584 0-41.725-33.979-75.671-75.744-75.671s-75.743 33.946-75.743 75.671c0 21.603 9.28 42.227 25.462 56.584a54.776 54.776 0 0 1 13.395 18.031c-6.478 3.584-10.877 10.483-10.877 18.396 0 9.609 6.491 17.714 15.313 20.206V235c0 1.793.333 3.506.912 5.101v178.394H65a5 5 0 0 0-5 5V443c0 13.785 11.215 25 25 25h306.734a5 5 0 0 0 4.857-3.813l4.124-16.873a72.624 72.624 0 0 0 10.042-4.15l14.912 9.053a5 5 0 0 0 6.13-.738l19.551-19.551a4.998 4.998 0 0 0 .739-6.13l-9.02-14.856a72.654 72.654 0 0 0 4.178-10.029l16.939-4.141a5 5 0 0 0 3.813-4.857v-27.649a5 5 0 0 0-3.813-4.857l-16.874-4.125a72.742 72.742 0 0 0-4.149-10.042l9.054-14.912a5 5 0 0 0-.739-6.13l-19.551-19.551a4.996 4.996 0 0 0-6.13-.738l-14.855 9.02a72.633 72.633 0 0 0-10.029-4.178l-4.141-16.939a5.002 5.002 0 0 0-4.857-3.813h-21.026v-65H445zM265.272 54c0-7.168 5.832-13 13-13H443c8.271 0 15 6.729 15 15v11.914H265.272zm13 169h51.76v80.635a4.987 4.987 0 0 0-5.832.886l-19.551 19.551a4.998 4.998 0 0 0-.739 6.13l9.02 14.856a72.654 72.654 0 0 0-4.178 10.029l-16.939 4.141a5 5 0 0 0-3.813 4.857v24.021H117.968V250h8.614c8.271 0 15-6.729 15-15v-13.19a21.091 21.091 0 0 0 11.825-8.65h106.019c4.162 5.943 11.056 9.84 18.846 9.84zM87.111 249.419c1.302.37 2.669.581 4.088.581h16.769v143.105a5 5 0 0 0 5 5h185.039l10.68 2.611a72.742 72.742 0 0 0 4.149 10.042l-4.708 7.755c-.06-.002-.115-.018-.175-.018H87.111zM86.199 235v-12.394h45.383V235c0 2.757-2.243 5-5 5H91.199c-2.757 0-5-2.243-5-5zm169.073-52.229V200c0 1.073.08 2.126.222 3.16h-98.679c.039-.519.079-1.038.079-1.567 0-8.068-4.576-15.078-11.263-18.598l.105-.224zM65.005 157.687c-14.044-12.46-22.099-30.358-22.099-49.104 0-36.211 29.492-65.671 65.743-65.671s65.744 29.46 65.744 65.671c0 18.746-8.055 36.644-22.099 49.104-7.184 6.374-12.856 14.23-16.562 22.894H113.89v-36.353c10.815-2.327 18.952-12.038 18.952-23.634 0-13.326-10.745-24.167-23.952-24.167-13.208 0-23.953 10.841-23.953 24.167 0 11.596 8.138 21.307 18.953 23.634v36.353H81.898c-.109 0-.214.015-.322.016-3.704-8.67-9.379-16.53-16.571-22.91zm43.886-22.926c-7.693 0-13.953-6.355-13.953-14.167s6.26-14.167 13.953-14.167 13.952 6.355 13.952 14.167-6.259 14.167-13.952 14.167zm-38.005 66.832c0-6.073 4.94-11.013 11.013-11.013h53.984c6.072 0 11.013 4.94 11.013 11.013 0 6.072-4.94 11.013-11.013 11.013H81.898c-6.072 0-11.012-4.94-11.012-11.013zM70 443v-14.505h233.078a4.975 4.975 0 0 0 1.443 3.305l19.551 19.551a4.998 4.998 0 0 0 6.13.738l14.855-9.02a72.633 72.633 0 0 0 10.029 4.178L357.715 458H85c-8.271 0-15-6.729-15-15zm317.99-145 3.882 15.88a5 5 0 0 0 3.481 3.619 62.632 62.632 0 0 1 13.311 5.545 5 5 0 0 0 5.035-.09l13.934-8.459 14 14-8.489 13.982a5 5 0 0 0-.097 5.022 62.553 62.553 0 0 1 5.505 13.327 5.001 5.001 0 0 0 3.624 3.496L458 368.19v19.8l-15.88 3.882a4.999 4.999 0 0 0-3.619 3.481 62.641 62.641 0 0 1-5.545 13.31 4.999 4.999 0 0 0 .089 5.036l8.46 13.934-14 14-13.982-8.488a4.994 4.994 0 0 0-5.022-.097 62.62 62.62 0 0 1-13.327 5.506 5.003 5.003 0 0 0-3.496 3.624L387.81 458h-19.8l-3.882-15.88a5 5 0 0 0-3.481-3.619 62.632 62.632 0 0 1-13.311-5.545 5 5 0 0 0-5.035.09l-13.934 8.459-14-14 8.489-13.982a5 5 0 0 0 .097-5.022 62.553 62.553 0 0 1-5.505-13.327 5.001 5.001 0 0 0-3.624-3.496L298 387.81v-19.8l15.88-3.882a4.999 4.999 0 0 0 3.619-3.481 62.641 62.641 0 0 1 5.545-13.31 4.999 4.999 0 0 0-.089-5.036l-8.46-13.934 14-14 13.982 8.488a5 5 0 0 0 5.022.097 62.62 62.62 0 0 1 13.327-5.506 5.003 5.003 0 0 0 3.496-3.624L368.19 298zm-47.958 11.673V223h20.856v66.336a4.964 4.964 0 0 0-1.48 2.477l-4.124 16.873a72.624 72.624 0 0 0-10.042 4.15zM278.272 213c-7.168 0-13-5.832-13-13V77.914H458V200c0 7.168-5.832 13-13 13z" opacity="1" data-original="#5b5b7f" class=""></path></g></svg>