<svg xmlns="http://www.w3.org/2000/svg" version="1.1" xmlns:xlink="http://www.w3.org/1999/xlink" width="512" height="512" x="0" y="0" viewBox="0 0 64 64" style="enable-background:new 0 0 512 512" xml:space="preserve" class=""><g><g data-name="coding-programing-layout-customize-web design"><path fill="#004fac" d="M59 3H5a2 2 0 0 0-2 2v6h58V5a2 2 0 0 0-2-2z" opacity="1" data-original="#004fac"></path><path fill="#d1e7f8" d="M61 11v48a2.006 2.006 0 0 1-2 2H5a2.006 2.006 0 0 1-2-2V11z" opacity="1" data-original="#d1e7f8" class=""></path><path fill="#c2dff6" d="M11 61h48a2.006 2.006 0 0 0 2-2V11a50.147 50.147 0 0 1-50 50z" opacity="1" data-original="#c2dff6" class=""></path><path fill="#ed1c24" d="M36 17h19v5H36z" opacity="1" data-original="#ed1c24"></path><path fill="#7ed63e" d="M32 28h13v12H32z" opacity="1" data-original="#7ed63e"></path><path fill="#ffcd00" d="M49 28h8v12h-8z" opacity="1" data-original="#ffcd00"></path><path fill="#006df0" d="M32 45h25v12H32z" opacity="1" data-original="#006df0" class=""></path><path fill="#ffeb99" d="M3 11h29v50H5a2 2 0 0 1-2-2V11z" opacity="1" data-original="#ffeb99" class=""></path><path fill="#ffe477" d="M11 61h21v-4.665A49.525 49.525 0 0 1 11 61z" opacity="1" data-original="#ffe477"></path><g fill="#231f20"><path d="M59 2H5a3.009 3.009 0 0 0-3 3v54a3.009 3.009 0 0 0 3 3h54a3.009 3.009 0 0 0 3-3V5a3.009 3.009 0 0 0-3-3zM31 60H5a1 1 0 0 1-1-1V12h27zm29-1a1 1 0 0 1-1 1H33v-2h24a1 1 0 0 0 1-1V45a1 1 0 0 0-1-1H33v-3h12a1 1 0 0 0 1-1V28a1 1 0 0 0-1-1H33V12h27zm-27-3V46h23v10zm0-17V29h11v10zm27-29H4V5a1 1 0 0 1 1-1h54a1 1 0 0 1 1 1z" fill="#231f20" opacity="1" data-original="#231f20" class=""></path><path d="M8 6H7a1 1 0 0 0 0 2h1a1 1 0 0 0 0-2zM12 6h-1a1 1 0 0 0 0 2h1a1 1 0 0 0 0-2zM16 6h-1a1 1 0 0 0 0 2h1a1 1 0 0 0 0-2zM58 7a1 1 0 0 0-1-1H22a1 1 0 0 0 0 2h35a1 1 0 0 0 1-1zM19.168 20.555a1 1 0 0 0 1.387.277l3-2a1 1 0 0 0 0-1.664l-3-2a1 1 0 0 0-1.11 1.664L21.2 18l-1.752 1.168a1 1 0 0 0-.28 1.387zM6.445 18.832l3 2a1 1 0 1 0 1.11-1.664L8.8 18l1.752-1.168a1 1 0 1 0-1.11-1.664l-3 2a1 1 0 0 0 0 1.664zM12.5 21.868A.988.988 0 0 0 13 22a1 1 0 0 0 .869-.5l4-7a1 1 0 1 0-1.736-.992l-4 7a1 1 0 0 0 .367 1.36zM7 26h2a1 1 0 0 0 0-2H7a1 1 0 0 0 0 2zM7 30h14a1 1 0 0 0 0-2H7a1 1 0 0 0 0 2zM13 26h15a1 1 0 0 0 0-2H13a1 1 0 0 0 0 2zM7 42h2a1 1 0 0 0 0-2H7a1 1 0 0 0 0 2zM28 44H7a1 1 0 0 0 0 2h21a1 1 0 0 0 0-2zM21 40h-8a1 1 0 0 0 0 2h8a1 1 0 0 0 0-2zM7 54h2a1 1 0 0 0 0-2H7a1 1 0 0 0 0 2zM28 52H13a1 1 0 0 0 0 2h15a1 1 0 0 0 0-2zM7 38h8a1 1 0 0 0 0-2H7a1 1 0 0 0 0 2zM21 36h-2a1 1 0 0 0 0 2h2a1 1 0 0 0 0-2zM7 50h8a1 1 0 0 0 0-2H7a1 1 0 0 0 0 2zM21 50a1 1 0 0 0 0-2h-2a1 1 0 0 0 0 2zM15 56H7a1 1 0 0 0 0 2h8a1 1 0 0 0 0-2zM21 56h-2a1 1 0 0 0 0 2h2a1 1 0 0 0 0-2zM7 34h2a1 1 0 0 0 0-2H7a1 1 0 0 0 0 2zM28 33a1 1 0 0 0-1-1H13a1 1 0 0 0 0 2h14a1 1 0 0 0 1-1zM36 23h19a1 1 0 0 0 1-1v-5a1 1 0 0 0-1-1H36a1 1 0 0 0-1 1v5a1 1 0 0 0 1 1zm1-5h17v3H37zM48 28v12a1 1 0 0 0 1 1h8a1 1 0 0 0 1-1V28a1 1 0 0 0-1-1h-8a1 1 0 0 0-1 1zm2 1h6v10h-6z" fill="#231f20" opacity="1" data-original="#231f20" class=""></path></g></g></g></svg>