<svg xmlns="http://www.w3.org/2000/svg" version="1.1" xmlns:xlink="http://www.w3.org/1999/xlink" width="512" height="512" x="0" y="0" viewBox="0 0 512 512" style="enable-background:new 0 0 512 512" xml:space="preserve" class=""><g><path d="M130.145 224.082v58.06l63.943 2.008.002-.025.072-.044v-60.264c-19.81 9.018-43.259 9.924-64.017.265z" style="" fill="#eab883" data-original="#eab883"></path><path d="M160.154 230.945c-10.161-.177-20.374-2.38-30.009-6.863v58.06l36.711 1.153-4.647-12.846c-3.318-9.172-1.563-14.202-2.055-39.504z" style="" fill="#dda36f" data-original="#dda36f"></path><path d="M189.115 269.324c-16.086 11.508-37.745 11.38-53.695-.317l-.413-.303v64.034h54.974v-64.034l-.866.62z" style="" fill="#efefef" data-original="#efefef" class=""></path><path d="m180.239 320.287-15.371-42.489c-17.411.904-29.679-9.004-29.86-9.093v64.034h30.196c5.246-3.83 15.035-12.452 15.035-12.452z" style="" fill="#dddddd" data-original="#dddddd"></path><path d="m316.469 466.954-26.378-163.948c-4.71-23.592-26.588-27.549-27.513-27.966l-29.461-8.152-3.594-2.12-59.069 52.951.014-.038c-2.946 7.603-13.552 7.6-16.496 0l.014.038-59.066-52.952-3.594 2.12-29.461 8.152c-.925.418-22.803 4.374-27.513 27.966L7.975 466.954c-3.317 20.617 12.103 37.547 31.192 37.547h246.11c19.091 0 34.509-16.934 31.192-37.547z" style="" fill="#70b5e8" data-original="#70b5e8" class=""></path><path d="m37.916 466.954 26.378-177.947c1.485-7.437 4.677-12.92 8.38-16.959l-10.808 2.991c-.925.418-22.803 4.374-27.513 27.966L7.975 466.954c-3.317 20.617 12.103 37.547 31.193 37.547h29.941c-19.094 0-34.51-16.933-31.193-37.547zM153.988 317.719l-62.662-50.833 38.819-22.901v12.16zM170.455 317.719l62.663-50.833-38.956-22.901v12.16z" style="" fill="#52a5d8" data-original="#52a5d8"></path><path d="M124.062 467.994v36.507h77.44v-36.507c0-10.103 6.984-18.583 16.372-20.927-13.867-7.021-19.004-22.047-20.876-31.033-.873-4.19-4.53-7.211-8.809-7.211h-51.388c-4.282 0-7.937 3.027-8.811 7.218-1.865 8.945-6.963 23.867-20.682 30.928 9.582 2.205 16.754 10.785 16.754 21.025z" style="" fill="#a4d9f4" data-original="#a4d9f4"></path><path d="M149.932 504.501v-35.652c0-5.047-1.621-9.719-4.368-13.529-4.622-6.406-4.261-15.053.175-21.59 4.824-7.111 7.23-15.057 8.417-20.751a9.792 9.792 0 0 1 1.973-4.156h-19.327c-4.282 0-7.937 3.027-8.811 7.218-1.865 8.945-6.963 23.867-20.682 30.928 9.581 2.205 16.753 10.785 16.753 21.025v36.507h25.87z" style="" fill="#84c7ef" data-original="#84c7ef" class=""></path><path d="M206.002 462.688h-1.968c-22.997 0-41.813 18.816-41.813 41.813h43.78v-41.813zM118.563 462.688v41.813h43.658c0-22.997-18.815-41.813-41.813-41.813h-1.845z" style="" fill="#eab883" data-original="#eab883"></path><path d="M162.222 504.501h43.78v-20.907h-38.127a41.444 41.444 0 0 0-5.653 20.907z" style="" fill="#dda36f" data-original="#dda36f"></path><path d="M118.563 483.594v20.907h43.659a41.457 41.457 0 0 0-5.653-20.907h-38.006z" style="" fill="#dda36f" data-original="#dda36f"></path><path d="M223.478 34.29c-2.613-.572-4.971-1.979-6.645-4.065C190.817-2.199 121.632.489 85.659 36.462c-33.146 33.146-14.811 86.036-14.811 86.036h183.296c16.017-67.241-18.372-85.518-30.666-88.208z" style="" fill="#93482b" data-original="#93482b" class=""></path><path d="M131.129 36.462c13.599-13.599 31.943-22.437 50.907-26.423-31.295-7.288-71.669 1.716-96.377 26.423-33.146 33.147-14.811 86.036-14.811 86.036h45.47c-.001-.001-18.337-52.889 14.811-86.036z" style="" fill="#843d26" data-original="#843d26" class=""></path><path d="m70.969 117.851-.028-.029c-11.803 7.947-11.991 23.137 0 31.212l.028-.029c4.087 2.744 9.272 4.389 14.917 4.389v-39.932c-5.645 0-10.83 1.645-14.917 4.389zM253.991 117.851l.028-.029c4.551 3.065 7.726 7.5 8.645 12.556l.014.083c.052.296.099.594.136.894.01.083.017.166.026.249.027.256.054.512.07.771.014.227.018.455.023.684.002.115.012.229.012.345l-.001.024.001.024c0 .116-.01.23-.012.345-.005.228-.009.457-.023.684-.016.259-.043.515-.07.771-.009.083-.016.167-.026.25-.037.3-.084.598-.136.894l-.014.083c-.918 5.056-4.093 9.491-8.645 12.556l-.028-.029c-4.088 2.744-9.272 4.389-14.917 4.389v-39.931c.305.045 7.81-.384 14.917 4.387z" style="" fill="#eab883" data-original="#eab883"></path><path d="M70.941 131.068c-2.655-1.788-4.821-4.052-6.365-6.622-5.232 8.718-2.132 18.867 6.365 24.588l.028-.029c4.087 2.744 9.272 4.389 14.917 4.389v-17.966c-5.645 0-10.831-1.645-14.917-4.39l-.028.03zM262.933 133.059c-.005-.229-.009-.457-.023-.684a17.798 17.798 0 0 0-.07-.771c-.009-.083-.016-.167-.026-.249-.037-.3-.083-.598-.136-.894l-.014-.083c-.383-2.107-1.177-4.097-2.28-5.933-1.543 2.572-3.71 4.834-6.365 6.622l-.028-.029c-4.088 2.744-9.272 4.39-14.917 4.39v17.966c5.645 0 10.83-1.645 14.917-4.389l.028.029c4.552-3.065 7.726-7.499 8.644-12.557l.014-.082c.052-.296.099-.594.136-.894.01-.083.017-.166.026-.249.027-.256.054-.512.07-.771.014-.227.018-.455.023-.684.002-.115.012-.229.012-.345l-.001-.024.001-.024c.001-.116-.009-.23-.011-.345z" style="" fill="#dda36f" data-original="#dda36f"></path><path d="M239.198 139.178v-25.715s-18.335 3.499-30.465-11.883c-2.28-2.891-6.374-3.551-9.356-1.39-18.13 13.14-69.219 33.47-113.585 13.274v14.691h-.086c-.167 16.065-.003 40.715 2.151 49.823 2.791 11.782 8.335 22.78 16.421 32.199 46.568 54.14 134.911 20.533 134.911-49.94-.015-8.681-.017-15.556-.014-21.057h.022v-.002z" style="" fill="#f7cf9c" data-original="#f7cf9c" class=""></path><path d="M117.591 177.976c-2.154-9.108-2.318-33.757-2.151-49.823h.086v-6.748c-9.956-1.035-20.007-3.514-29.734-7.942v14.691h-.086c-.167 16.065-.002 40.715 2.151 49.823 8.964 37.845 46.314 65.82 88.707 57.523-29.452-5.9-52.316-29.418-58.973-57.524z" style="" fill="#eab883" data-original="#eab883"></path><path d="M492.154 229.319c-270.317 0-252.313-.524-256.014 1.487a12.32 12.32 0 0 0-6.449 10.836v196.936c0 6.806 5.517 12.324 12.324 12.324H492.156c6.806 0 12.324-5.517 12.324-12.324V241.642c-.002-4.678-5.536-12.323-12.326-12.323z" style="" fill="#efefef" data-original="#efefef" class=""></path><path d="M272.561 438.579V241.644c0-6.828 5.537-12.324 12.324-12.324-43.426.498-43.928-1.129-48.745 1.487a12.32 12.32 0 0 0-6.449 10.836v196.936c0 6.806 5.517 12.324 12.324 12.324h42.87c-6.807-.001-12.324-5.518-12.324-12.324z" style="" fill="#dddddd" data-original="#dddddd"></path><path d="M471.761 79.936H311.577c-6.599 0-11.999 5.399-11.999 11.999v80.986c0 6.599 5.399 11.999 11.999 11.999h140.997c3.278 0 6.438 1.221 8.864 3.426l11.688 10.62c4.086 3.713 10.636.814 10.636-4.706V91.936c-.002-6.6-5.402-12-12.001-12z" style="" fill="#ffb70d" data-original="#ffb70d" class=""></path><path d="M332.913 172.921V91.935c0-6.599 5.399-11.999 11.999-11.999h-33.334c-6.599 0-11.999 5.399-11.999 11.999v80.986c0 6.599 5.399 11.999 11.999 11.999h33.334c-6.6 0-11.999-5.399-11.999-11.999z" style="" fill="#f4a403" data-original="#f4a403"></path><circle cx="366.9" cy="285.819" r="16.267" style="" fill="#cccccc" data-original="#cccccc"></circle><path d="M366.91 269.56c-12.403-.018-20.393 13.48-14.095 24.387 6.299 10.911 21.984 10.734 28.168-.013-12.513-.018-20.324-13.509-14.073-24.374z" style="" fill="#bcbbb8" data-original="#bcbbb8"></path><path d="M396.137 490.93V338.45c0-.015-.011-.028-.025-.028h-56.256c-.014 0-.025.012-.025.028v152.48h56.306z" style="" fill="#dddddd" data-original="#dddddd"></path><path d="M367.984 338.45c0-.015.011-.028.025-.028h-28.153c-.014 0-.025.012-.025.028v152.48h28.153V338.45z" style="" fill="#cccccc" data-original="#cccccc"></path><path d="M420.127 490.93c0-7.495-6.076-13.572-13.572-13.572h-78.943c-7.495 0-13.572 6.076-13.572 13.572 0 7.495 6.075 13.572 13.572 13.572h78.943c7.495-.001 13.572-6.077 13.572-13.572z" style="" fill="#efefef" data-original="#efefef" class=""></path><path d="M354.396 490.93c0-7.495 6.076-13.572 13.572-13.572h-40.355c-7.495 0-13.572 6.076-13.572 13.572 0 7.495 6.075 13.572 13.572 13.572h40.355c-7.497-.001-13.572-6.077-13.572-13.572z" style="" fill="#dddddd" data-original="#dddddd"></path><path d="M343.117 285.814c0 13.105 10.662 23.766 23.767 23.766 13.105 0 23.766-10.661 23.766-23.766 0-13.105-10.661-23.766-23.766-23.766-13.105.001-23.767 10.662-23.767 23.766zm32.534 0c0 4.834-3.934 8.768-8.768 8.768-4.835 0-8.769-3.934-8.769-8.768 0-4.834 3.934-8.768 8.769-8.768 4.836.001 8.768 3.934 8.768 8.768zM261 410.503a7.498 7.498 0 0 0-7.499 7.499 7.498 7.498 0 0 0 7.499 7.499h23.082a7.498 7.498 0 0 0 7.499-7.499 7.498 7.498 0 0 0-7.499-7.499H261zM314.749 412.697c-1.739-1.74-4.329-2.54-6.768-2.05a7.69 7.69 0 0 0-2.7 1.12c-.41.27-.79.59-1.14.93-.34.35-.66.729-.931 1.14a7.722 7.722 0 0 0-1.12 2.7c-.492 2.632.393 5.111 2.051 6.77a7.499 7.499 0 0 0 2.439 1.619c.861.364 1.864.58 2.87.58 4.219 0 7.499-3.467 7.499-7.499a7.48 7.48 0 0 0-.58-2.87c-.189-.462-.921-1.721-1.62-2.44zM364.203 106.966a7.5 7.5 0 0 0-10.606 0l-18.507 18.507a7.498 7.498 0 0 0 0 10.605l18.507 18.507a7.5 7.5 0 1 0 10.606-10.605l-13.205-13.205 13.205-13.204a7.5 7.5 0 0 0 0-10.605zM420.741 156.782c5.368 0 5.803-3.675 23.81-20.704a7.498 7.498 0 0 0 0-10.605l-18.507-18.507a7.5 7.5 0 0 0-10.606 0 7.498 7.498 0 0 0 0 10.605l13.205 13.204-13.205 13.205c-4.739 4.739-1.318 12.802 5.303 12.802zM392.356 101.309l-20.786 57.109a7.5 7.5 0 0 0 14.094 5.129l20.786-57.109a7.5 7.5 0 0 0-14.094-5.129z" fill="#000000" opacity="1" data-original="#000000" class=""></path><path d="M492.136 221.82c-260.677.842-251.332-2.093-259.595 2.397a19.82 19.82 0 0 0-10.369 17.425v10.605l-20.523-12.48v-5.28c27.101-14.181 44.883-41.466 44.883-74.266v-.114c3.893-.83 7.567-2.307 10.874-4.4.263-.135.52-.286.77-.455 7.969-5.366 12.029-13.331 12.22-21.162-.082-.309 1.018-10.348-8.085-19.145 5.948-27.986 3.947-50.187-5.995-66.016-9.565-15.23-23.773-20.301-31.392-21.967-.978-.214-1.83-.723-2.399-1.433C201.391-.805 154.475-7.765 113.39 9.343a7.5 7.5 0 0 0 5.765 13.847c34.573-14.396 74.841-9.246 91.669 11.729 2.708 3.375 6.576 5.753 10.892 6.698 5.321 1.165 15.242 4.699 21.897 15.292 7.302 11.627 8.949 28.539 4.941 50.336-2.748-.762-8.671-1.714-11.424-1.08-2.723.329-14.536 1.083-22.667-9.229-4.8-6.086-13.43-7.325-19.646-2.819-16.68 12.088-64.096 30.953-105.08 12.944-1.386-.845-2.652-1.075-3.997-1.094-.129.002-.024-.017-.631.014a35.354 35.354 0 0 0-9.614 1.451C69.844 82.94 73.752 58.09 91.95 40.65l.003-.003a7.498 7.498 0 0 0 .223-10.602 7.501 7.501 0 0 0-10.605-.223c-23.486 22.517-28.226 54.9-19.561 85.472-15.497 15.499-6.624 40.151 16.395 44.87.351 8.036.965 15.183 1.996 19.54 3.116 13.154 9.181 25.048 18.033 35.36 7.009 8.149 15.19 14.749 24.198 19.624v5.014l-34.276 20.221c-.101.028-31.04 8.593-29.06 8.051-17.2 4.636-28.978 16.869-32.312 33.562a8.946 8.946 0 0 0-.05.277L.558 465.763C-3.345 490.028 15.411 512 39.951 512h245.313c9.234 0 18.06-3.25 25.034-9.069 3.81 5.472 10.137 9.069 17.296 9.069h78.943c11.618 0 21.07-9.452 21.07-21.07 0-11.619-9.452-21.071-21.07-21.071h-2.919v-11.458h30.08a7.498 7.498 0 0 0 7.499-7.499 7.498 7.498 0 0 0-7.499-7.499h-30.08v-98.49c6.686-3.801 3.97-14.018-3.698-14.018h-64.793c-8.203 0-10.421 11.364-2.815 14.447v98.061c-99.702 0-91.879.438-93.731-1.415-2.045-2.045-1.412 10.033-1.412-200.345a4.822 4.822 0 0 1 4.824-4.823c266.489.206 250.418-.517 252.436.578a4.83 4.83 0 0 1 2.529 4.246V438.58a4.824 4.824 0 0 1-2.529 4.247c-1.865 1.014-1.284.388-25.736.578a7.498 7.498 0 0 0-7.499 7.499 7.498 7.498 0 0 0 7.499 7.499c22.311-.616 29.281 2.372 37.457-5.805a19.689 19.689 0 0 0 5.807-14.018V241.642c.001-10.99-8.917-19.822-19.821-19.822zM200.813 455.304c-16.272 1.051-30.414 10.025-38.604 23.101-8.169-13.041-22.259-22.001-38.478-23.091a21.724 21.724 0 0 0-5.459-6.895c9.335-8.025 14.727-20.053 17.018-32.097h53.838c2.287 12.02 7.674 24.092 17.083 32.148a21.706 21.706 0 0 0-5.398 6.834zm-39.877-140.377c-.042-.105-12.089-31.216-12.133-31.333a52.879 52.879 0 0 0 27.235.029l-12.339 31.354c-.407 1.036-1.475.991-1.375.936-1.007-.002-1.139-.363-1.388-.986zm25.714-74.258v15.991l-2.833 7.197a38.175 38.175 0 0 1-42.643.033l-3.542-9.147v-13.791c15.874 4.806 32.886 4.677 49.018-.283zm33.616 27.973-32.354 25.765c14.102-35.862 13.921-34.469 13.736-37.087l18.618 11.322zm26.272-124.163v-22.102c11.632 4.654 11.973 17.311 0 22.102zM78.133 122.378a828.407 828.407 0 0 0-.114 22.049c-11.874-4.846-11.496-17.404.114-22.049zm31.676 82.911c-20.606-24.003-16.122-46.08-16.676-80.911 37.372 12.013 83.855.744 109.913-17.705 9.02 11.13 20.615 14.007 28.494 14.524.003 3.653-.045 17.316-.008 39.038.001 63.74-79.856 93.725-121.723 45.054zm12.883 51.792c.264 2.094 1.048 2.787 14.106 37.047l-32.379-26.266 18.273-10.781zm-63.307 10.877c-.21.073-.417.156-.62.248.122-.056.326-.152.62-.248zM15.366 468.146l26.353-163.8c4.66-22.876 26.098-21.883 47.87-29.2l25.555 20.731v48.168c0 4.143 3.357 7.499 7.499 7.499s7.499-3.357 7.499-7.499v-36l17.808 14.446c6.235 11.217 22.471 11.233 28.733.035l17.828-14.197v35.717c0 4.143 3.357 7.499 7.499 7.499s7.499-3.357 7.499-7.499v-47.661l12.661-10.083c.072 162.521-.154 152.111.167 154.728-5.952-2.572-10.601-7.246-14.053-14.108-4.54-9.02-5.122-18.406-5.126-18.477a7.498 7.498 0 0 0-7.489-7.117H128.75c-3.977 0-7.262 3.126-7.488 7.095-.005.094-.588 9.48-5.127 18.5-11.081 22.016-31.2 15.213-39.092 16.483l14.336-96.891a7.5 7.5 0 0 0-6.32-8.516c-4.095-.611-7.91 2.224-8.516 6.32l-14.661 99.086H54.15a7.498 7.498 0 0 0-7.499 7.499 7.498 7.498 0 0 0 7.499 7.499h50.308a6.6 6.6 0 0 1 6.593 6.573v32.027h-71.1c-15.311-.001-27.023-13.708-24.585-28.857zm110.684 28.856v-26.348c13.78 2.294 24.809 12.828 27.835 26.348H126.05zm72.439-26.37v26.369h-27.956c3.035-13.56 14.12-24.117 27.956-26.369zm214.118 20.298a6.077 6.077 0 0 1-6.071 6.071h-78.943a6.078 6.078 0 0 1-6.072-6.071 6.079 6.079 0 0 1 6.072-6.072h78.943a6.078 6.078 0 0 1 6.071 6.072zm-65.296-21.07V345.921h41.309V469.86h-41.309zm-14.998 0c-4.118.068-5.156-.174-8.055.29-.223-3.154-.53-4.054-1.721-11.748h9.776v11.458zm-24.967-11.458 1.716 10.667c2.359 14.657-8.973 27.934-23.798 27.934H213.49v-32.027a6.6 6.6 0 0 1 6.593-6.573l87.263-.001z" fill="#000000" opacity="1" data-original="#000000" class=""></path><path d="M311.557 192.419h140.997c3.721 0 4.474 2.625 15.508 12.097 8.945 8.126 23.178 1.716 23.178-10.257v-43.333a7.498 7.498 0 0 0-7.499-7.499 7.498 7.498 0 0 0-7.499 7.499v40.757c-7.252-5.58-12.028-14.262-23.688-14.262H311.557c-2.439 0-4.5-2.061-4.5-4.5V91.935c0-2.439 2.061-4.5 4.5-4.5h160.185c2.439 0 4.5 2.061 4.5 4.5v23.994a7.498 7.498 0 0 0 7.499 7.499 7.498 7.498 0 0 0 7.499-7.499V91.935c0-10.751-8.747-19.498-19.498-19.498H311.557c-10.751 0-19.498 8.747-19.498 19.498v80.986c0 10.751 8.747 19.498 19.498 19.498z" fill="#000000" opacity="1" data-original="#000000" class=""></path></g></svg>